<?xml version="1.0" encoding="UTF-8"?>
<svg id="Layer_2" data-name="Layer 2" xmlns="http://www.w3.org/2000/svg" viewBox="0 0 128 128">
  <defs>
    <style>
      .cls-1 {
        stroke-width: 0px;
      }
    </style>
  </defs>
  <g id="Layer_1-2" data-name="Layer 1">
    <path class="cls-1" d="M127.71,57.92h-22.27c-.22-1.49-.51-2.95-.87-4.38-1.04-4.05-2.67-7.86-4.8-11.33-7.35-12.04-20.62-20.08-35.76-20.08s-28.41,8.04-35.76,20.08c-2.12,3.48-3.75,7.29-4.8,11.33-.37,1.43-.66,2.9-.88,4.38h-10.72c.03-.29.07-.58.11-.87.41-3.09,1.09-6.09,2.01-8.99,1.26-3.95,2.97-7.69,5.07-11.18,9.19-15.22,25.89-25.4,44.97-25.4s35.78,10.18,44.97,25.4l9.95-5.75C107.74,12.49,87.33,0,64,0S20.26,12.49,9.07,31.14c-2.09,3.49-3.86,7.19-5.26,11.06-1.71,4.72-2.88,9.69-3.44,14.84-.03.29-.06.58-.08.87-.19,2-.29,4.03-.29,6.08,0,1.75.07,3.49.21,5.2.02.29.05.58.08.87h22.27c.22,1.49.51,2.95.88,4.38,1.04,4.05,2.67,7.86,4.8,11.33,7.35,12.04,20.62,20.08,35.76,20.08s28.41-8.04,35.76-20.08l-10.07-5.82c-5.34,8.57-14.85,14.27-25.69,14.27s-20.35-5.7-25.69-14.27c-1.87-2.99-3.22-6.33-3.95-9.9h81.8c-.39,3.4-1.1,6.69-2.11,9.86-1.26,3.95-2.97,7.69-5.07,11.17-9.19,15.22-25.89,25.4-44.97,25.4s-35.78-10.18-44.97-25.4l-9.95,5.75c11.18,18.65,31.59,31.14,54.93,31.14s43.74-12.49,54.92-31.14c2.09-3.49,3.86-7.19,5.26-11.06,1.8-4.98,3.01-10.25,3.52-15.72.03-.29.05-.58.08-.87.14-1.72.21-3.45.21-5.2,0-2.05-.1-4.08-.29-6.08ZM72.54,57.92h-38.18c.73-3.57,2.09-6.91,3.95-9.9,5.34-8.57,14.85-14.27,25.69-14.27s20.35,5.7,25.69,14.27c1.86,2.99,3.22,6.33,3.95,9.9h-21.1Z"/>
  </g>
</svg>